<mxfile host="app.diagrams.net" agent="Mozilla/5.0 (Windows NT 10.0; Win64; x64) AppleWebKit/537.36 (KHTML, like Gecko) Chrome/130.0.0.0 Safari/537.36" version="24.8.3">
  <diagram name="第 1 页" id="kH2xpyNVAY3xceXkkSbd">
    <mxGraphModel dx="90" dy="-532" grid="0" gridSize="10" guides="1" tooltips="1" connect="1" arrows="1" fold="1" page="0" pageScale="1" pageWidth="827" pageHeight="1169" math="0" shadow="0">
      <root>
        <mxCell id="0" />
        <mxCell id="1" parent="0" />
        <mxCell id="9I0cf-84f6sTRI4iehvO-2" value="" style="shape=cube;whiteSpace=wrap;html=1;boundedLbl=1;backgroundOutline=1;darkOpacity=0.05;darkOpacity2=0.1;size=29;rotation=90;" vertex="1" parent="1">
          <mxGeometry x="351" y="1102.25" width="157.5" height="33" as="geometry" />
        </mxCell>
        <mxCell id="9I0cf-84f6sTRI4iehvO-3" value="" style="shape=cube;whiteSpace=wrap;html=1;boundedLbl=1;backgroundOutline=1;darkOpacity=0.05;darkOpacity2=0.1;size=29;rotation=90;" vertex="1" parent="1">
          <mxGeometry x="380.75" y="1108.38" width="120.5" height="34" as="geometry" />
        </mxCell>
        <mxCell id="9I0cf-84f6sTRI4iehvO-4" value="" style="shape=cube;whiteSpace=wrap;html=1;boundedLbl=1;backgroundOutline=1;darkOpacity=0.05;darkOpacity2=0.1;size=29;rotation=90;" vertex="1" parent="1">
          <mxGeometry x="407.25" y="1109.88" width="92" height="35" as="geometry" />
        </mxCell>
        <mxCell id="9I0cf-84f6sTRI4iehvO-5" value="" style="shape=cube;whiteSpace=wrap;html=1;boundedLbl=1;backgroundOutline=1;darkOpacity=0.05;darkOpacity2=0.1;size=29;rotation=90;" vertex="1" parent="1">
          <mxGeometry x="430.75" y="1107.88" width="68.5" height="37" as="geometry" />
        </mxCell>
        <mxCell id="9I0cf-84f6sTRI4iehvO-6" value="" style="shape=cube;whiteSpace=wrap;html=1;boundedLbl=1;backgroundOutline=1;darkOpacity=0.05;darkOpacity2=0.1;size=29;rotation=90;" vertex="1" parent="1">
          <mxGeometry x="456.25" y="1101.88" width="45" height="41" as="geometry" />
        </mxCell>
        <mxCell id="9I0cf-84f6sTRI4iehvO-7" value="" style="endArrow=classic;html=1;rounded=0;" edge="1" parent="1">
          <mxGeometry width="50" height="50" relative="1" as="geometry">
            <mxPoint x="506" y="1127.83" as="sourcePoint" />
            <mxPoint x="542" y="1127.83" as="targetPoint" />
          </mxGeometry>
        </mxCell>
        <mxCell id="9I0cf-84f6sTRI4iehvO-8" value="" style="endArrow=classic;html=1;rounded=0;" edge="1" parent="1">
          <mxGeometry width="50" height="50" relative="1" as="geometry">
            <mxPoint x="605.75" y="1127.83" as="sourcePoint" />
            <mxPoint x="641.75" y="1127.83" as="targetPoint" />
          </mxGeometry>
        </mxCell>
        <mxCell id="9I0cf-84f6sTRI4iehvO-9" value="" style="shape=parallelogram;perimeter=parallelogramPerimeter;whiteSpace=wrap;html=1;fixedSize=1;rotation=90;flipH=1;size=4.250000000000227;opacity=80;" vertex="1" parent="1">
          <mxGeometry x="640.25" y="1123.88" width="21.5" height="11" as="geometry" />
        </mxCell>
        <mxCell id="9I0cf-84f6sTRI4iehvO-10" value="" style="shape=parallelogram;perimeter=parallelogramPerimeter;whiteSpace=wrap;html=1;fixedSize=1;rotation=90;flipH=1;size=5.316666666666379;textOpacity=10;opacity=70;" vertex="1" parent="1">
          <mxGeometry x="635.25" y="1122.88" width="44" height="13" as="geometry" />
        </mxCell>
        <mxCell id="9I0cf-84f6sTRI4iehvO-11" value="" style="shape=parallelogram;perimeter=parallelogramPerimeter;whiteSpace=wrap;html=1;fixedSize=1;rotation=90;flipH=1;size=9.624999999999773;textOpacity=0;opacity=80;" vertex="1" parent="1">
          <mxGeometry x="634.25" y="1118.13" width="72.75" height="22.5" as="geometry" />
        </mxCell>
        <mxCell id="9I0cf-84f6sTRI4iehvO-12" value="" style="shape=cube;whiteSpace=wrap;html=1;boundedLbl=1;backgroundOutline=1;darkOpacity=0.05;darkOpacity2=0.1;size=29;rotation=90;" vertex="1" parent="1">
          <mxGeometry x="542.75" y="1102.25" width="45" height="41" as="geometry" />
        </mxCell>
        <mxCell id="9I0cf-84f6sTRI4iehvO-13" value="" style="shape=cube;whiteSpace=wrap;html=1;boundedLbl=1;backgroundOutline=1;darkOpacity=0.05;darkOpacity2=0.1;size=29;rotation=90;" vertex="1" parent="1">
          <mxGeometry x="540.75" y="1107.88" width="68.5" height="37" as="geometry" />
        </mxCell>
        <mxCell id="9I0cf-84f6sTRI4iehvO-14" value="" style="shape=cube;whiteSpace=wrap;html=1;boundedLbl=1;backgroundOutline=1;darkOpacity=0.05;darkOpacity2=0.1;size=29;rotation=90;" vertex="1" parent="1">
          <mxGeometry x="535.75" y="1116.88" width="92" height="35" as="geometry" />
        </mxCell>
      </root>
    </mxGraphModel>
  </diagram>
</mxfile>
